<?xml version="1.0" standalone="no"?><!DOCTYPE svg PUBLIC "-//W3C//DTD SVG 1.1//EN" "http://www.w3.org/Graphics/SVG/1.1/DTD/svg11.dtd"><svg t="1673074137784" class="icon" viewBox="0 0 1024 1024" version="1.1" xmlns="http://www.w3.org/2000/svg" p-id="2779" width="200" height="200" xmlns:xlink="http://www.w3.org/1999/xlink"><path d="M512 512m-435.05 0a435.05 435.05 0 1 0 870.1 0 435.05 435.05 0 1 0-870.1 0Z" fill="#2C3D71" p-id="2780"></path><path d="M512 960C265 960 64 759 64 512S265 64 512 64s448 201 448 448-201 448-448 448z m0-870.1C279.25 89.9 89.9 279.25 89.9 512S279.25 934.1 512 934.1 934.1 744.75 934.1 512 744.75 89.9 512 89.9z" fill="#ffffff" p-id="2781" data-spm-anchor-id="a313x.7781069.0.i13" class="selected"></path><path d="M538.18 449c-0.92-5.66-3-11.38-7-15.54a23.65 23.65 0 0 0-15.26-7.13l-0.22-0.24 0.24 0.24h-0.7l0.25-0.24-0.22 0.24a22.71 22.71 0 0 0-16.95 9.77 27.86 27.86 0 0 0-3.9 9.2c-0.66 3.24-1 6.73-1.77 10.1-3.06 13.42-6.85 26.55-7.51 40.09a137.93 137.93 0 0 0 3.21 40.09c1.39 6.58 3.26 13 5.25 19.46l6.78 19.34c4.36 13.23 8 27.08 8.1 41.87a89.35 89.35 0 0 1-2.64 21.73 158.76 158.76 0 0 0-3.8 19.48 247.86 247.86 0 0 0-1.96 39.54 112.24 112.24 0 0 0 2.32 19c1.33 6.05 3.2 11.9 6.18 16.3a18.83 18.83 0 0 0 5 5.34 14.68 14.68 0 0 0 3 1.61l0.79 0.34h0.08a5.26 5.26 0 0 0-0.8-0.24 5.4 5.4 0 0 0-1.75-0.08c-1.67 0.34-0.71 0.16-0.78 0.13l1.61-0.54c4-1.75 7.51-5.52 10-10.78 5-10.57 6.34-24.1 6.73-37.19a241 241 0 0 0-2.41-39.9c-0.91-6.38-2.81-13-4-20.07a84.83 84.83 0 0 1-0.85-21.44c1.29-14.19 5.41-27.54 9.95-40.54s8.77-25.8 10.83-39.29 2.87-27.19 0.81-40.72c-1.46-13.51-6.39-26.45-8.61-39.93z m0 0c2.41 13.47 7.51 26.33 9.31 40a146.62 146.62 0 0 1 0.61 41c-2.63 27.54-15.46 53.29-15.61 79.91a76.8 76.8 0 0 0 2.19 19.38c1.48 6.34 3.87 12.8 5.44 19.88a240 240 0 0 1 5.17 41.74 140.58 140.58 0 0 1-0.82 21.42A77.5 77.5 0 0 1 539 734.2c-3 7.19-8.68 14.8-17.31 18.56l-3.23 1.16a5.8 5.8 0 0 1-2 0.42 10.06 10.06 0 0 1-2.39-0.08 10.22 10.22 0 0 1-1.12-0.24l-0.22-0.08-1.59-0.61a29.82 29.82 0 0 1-6-3.12 33.94 33.94 0 0 1-9.17-9.28 59.29 59.29 0 0 1-8.66-21.69 127.32 127.32 0 0 1-2.37-21.69 213.1 213.1 0 0 1 3.06-42.23 172.9 172.9 0 0 1 4.86-20.62 87.28 87.28 0 0 0 3.34-18.78c0.7-12.65-1.84-25.84-5.06-38.83-7.86-25.91-13.74-54.43-9.87-82 1.56-13.85 6.26-27 9.68-40.08 0.86-3.28 1.34-6.61 2.18-10a29 29 0 0 1 4.45-9.41 24.28 24.28 0 0 1 17.68-9.71l-0.22 0.24 0.25-0.24H515.97l0.24 0.24-0.22-0.23a24 24 0 0 1 15.4 7.44c3.99 4.18 5.94 9.95 6.79 15.66z" fill="#FFFFFF" p-id="2782"></path><path d="M638.16 234.25c-4.86 18.56-12.95 36.18-22.37 52.94-4.68 8.42-10.07 16.43-15.55 24.37-2.86 3.88-5.72 7.78-8.79 11.51l-8.93 11.09C570.75 348.5 561 364.52 552 381a506.92 506.92 0 0 0-23.67 51.59c2.83-19 8.78-37.41 16.39-55.11a250.2 250.2 0 0 1 13.15-25.84 219.24 219.24 0 0 1 16.57-24l9.15-11c3.07-3.54 5.8-7.35 8.79-11 5.77-7.39 11.19-15.06 16.56-22.79a512 512 0 0 0 29.22-48.6zM390.66 235.88c8.48 16.75 17.15 33.23 26.87 48.87 5 7.72 10 15.36 15.9 22.16 1.43 1.74 2.9 3.4 4.44 5l4.79 5c3.42 3.46 6.48 7.12 9.55 10.78A290.49 290.49 0 0 1 483 375.38a212.16 212.16 0 0 1 11.44 26 108.17 108.17 0 0 1 3.9 13.73c0.93 4.64 1.51 9.57 0.48 14.19a25.59 25.59 0 0 0-1.07-6.86 45.88 45.88 0 0 0-2.17-6.53 127.3 127.3 0 0 0-5.81-12.53c-4.22-8.2-8.91-16.16-13.79-24-5-7.75-9.88-15.61-15.32-23.07s-10.66-15-16.51-22.06c-2.86-3.54-5.75-7.11-8.85-10.34l-4.77-5.2a55.18 55.18 0 0 1-4.72-5.62 160.9 160.9 0 0 1-15.29-24.33 241.64 241.64 0 0 1-19.86-52.88zM545 501.89a568.9 568.9 0 0 1 55.67-69.69c20.34-21.77 42.2-42.36 66.6-59.92 24.37-17.41 51.28-32.44 81.21-39.7a140.8 140.8 0 0 1 46-3.69 128.68 128.68 0 0 1 44.82 12.51l4 1.93-0.48 4.49a299.48 299.48 0 0 1-12.1 58.57 162.41 162.41 0 0 1-11.8 28.14 93.89 93.89 0 0 1-8.72 13.2c-1.55 2-3.77 4.3-5.22 5.92a36.76 36.76 0 0 0-3.8 4.77c-4.6 6.78-6.89 15.37-8.92 24.69s-3.79 19.62-8.78 29.71a52.23 52.23 0 0 1-23.67 23.57c-9.83 5-20.13 7.45-30.23 9.05l-0.53 0.08h-0.61l-54 0.11 4.23-14.27a203.22 203.22 0 0 1 25.49 20.38c7.83 7.45 15.52 16 21 26a120.26 120.26 0 0 1 7.39 15 49.13 49.13 0 0 1 2.64 8.86 23.55 23.55 0 0 1-0.38 11.4 17.06 17.06 0 0 1-8.81 10.17c-0.47 0.26-0.91 0.41-1.37 0.62l-0.9 0.38a3.9 3.9 0 0 0-0.6 0.29c-0.25 0.16 0 0.06 0.14-0.31s0.11-0.57 0.12-0.29a6.62 6.62 0 0 0 0.5 1.61 20.43 20.43 0 0 0 2.93 4.55l1 1.18 0.37 1.05a32.29 32.29 0 0 1 2.24 13.5 16.49 16.49 0 0 1-3.11 8.75 14.65 14.65 0 0 1-8.59 5.4 19.29 19.29 0 0 1-4.06 0.48l-2.34 0.05a10.13 10.13 0 0 0-2.59 0.38 3.3 3.3 0 0 0 0.62-0.57A2.62 2.62 0 0 0 711 659a8.89 8.89 0 0 0 0.37 2.21c0.33 1.31 0.84 2.86 1.38 4.47s1.15 3.24 1.72 5.57a28.94 28.94 0 0 1 0.06 13.72 19.67 19.67 0 0 1-9.4 12.59 23.85 23.85 0 0 1-14.32 2.44c-1.09-0.11-2.12-0.3-3.16-0.5-0.41-0.07-0.32 0-0.29-0.07 0.24 0 0.51-0.33 0.1 0.07-0.78 0.83-1.81 3.63-2.27 6.44a78.5 78.5 0 0 0-0.5 19A101 101 0 0 0 687.9 744a32.79 32.79 0 0 0 1.4 4 9 9 0 0 0 0.62 1.22s0.05 0.09 0 0l-0.06-0.05 0.29 0.31c0.44 0.46 0.84 0.92 1.18 1.36a51 51 0 0 1 6.05 10.29 76.13 76.13 0 0 1 3.94 10.62 40.08 40.08 0 0 1 1.8 12.18c-0.18 2.29-0.29 5.4-3.3 8.8a9.84 9.84 0 0 1-5.81 2.87l-1.39 0.1h-0.89l-1.67-0.1a19.06 19.06 0 0 1-7.36-2.28 16.82 16.82 0 0 1-5.64-5.76 33.16 33.16 0 0 1-3.66-12 94.87 94.87 0 0 1-0.79-11c-0.14-3.52 0.06-7.38-0.16-10.08a34.6 34.6 0 0 0-1.84-8.76 41.4 41.4 0 0 0-9.71-15.41 25.27 25.27 0 0 0-6.86-5.07c-1-0.57-2.29-0.53-1.56-0.65a1.9 1.9 0 0 0 0.78-0.52c0.18-0.11 0.58-0.95 0 0.11a11.37 11.37 0 0 1-3 3.3c-4.88 3.32-9.59 3-13.76 2.23a17.24 17.24 0 0 1-6.55-2.75A8.93 8.93 0 0 1 628 725a6.7 6.7 0 0 1-0.92-1.85 6.86 6.86 0 0 1-0.27-1.7l0.06 0.42a4 4 0 0 0 0.27 0.86c0.3 0.62 0.9 2.12 3.72 2.6a4.26 4.26 0 0 0 3-0.93 3.58 3.58 0 0 0 0.52-0.5l0.18-0.23-0.21 0.32-0.89 1.31a11.45 11.45 0 0 1-6.7 4.71 11.33 11.33 0 0 1-8-1.48c-4-2.36-6.37-5.3-8.71-8.2l-0.61-0.76-0.21-1a26.79 26.79 0 0 0-3.37-8.75c-1.73-2.49-3.2-3.52-5.25-3.12l-1.3 0.33a7.44 7.44 0 0 1-2.62 0.12 8.85 8.85 0 0 1-4.17-1.75 18.84 18.84 0 0 1-4.47-5.09 58.91 58.91 0 0 1-5-10.58C578 675.52 575 661 572.69 646.34a328.27 328.27 0 0 0-8.08-43.21c-1.79-7.11-3.69-14.2-6-21.17-1.15-3.48-2.38-6.94-3.83-10.3a44.36 44.36 0 0 0-2.45-4.91c-1-1.46-1.94-3.33-3.81-3.68 1.91 0.24 3 2.09 4.09 3.5a44.89 44.89 0 0 1 2.76 4.81c1.66 3.3 3.1 6.71 4.46 10.14 2.69 6.88 5.08 13.87 7.22 20.93a331.78 331.78 0 0 1 10 43.12c2.9 14.27 6.5 28.6 12 41.81a52.73 52.73 0 0 0 4.81 9.14 12.2 12.2 0 0 0 2.86 3.08 1.57 1.57 0 0 0 0.86 0.35h0.12l1.36-0.4a11.29 11.29 0 0 1 8 1 15.44 15.44 0 0 1 5.35 4.92 34.23 34.23 0 0 1 4.92 11.53l-0.82-1.75c2 2.43 4.33 4.77 6.42 5.85a2.82 2.82 0 0 0 2 0.47c0.22-0.06 0.75-0.39 1.42-1.38l0.54-0.86 0.49-0.78 0.38-0.49a4.76 4.76 0 0 1 0.64-0.61 4.49 4.49 0 0 1 3.15-1c2.88 0.49 3.51 2 3.84 2.71a5.06 5.06 0 0 1 0.32 1 5.69 5.69 0 0 1 0.09 0.74c0 1 0-0.29-0.1-0.43a2.27 2.27 0 0 0-0.33-0.7c-0.14-0.22-0.15-0.18-0.06-0.13a9.29 9.29 0 0 0 3 1c2.51 0.5 5.38 0 6.2-0.8a1.75 1.75 0 0 0 0.44-0.56 10.14 10.14 0 0 1 1.43-2 7.8 7.8 0 0 1 3-1.88c4.11-1.13 6.39 0 8.51 0.74a34.6 34.6 0 0 1 10.03 6.86 50.68 50.68 0 0 1 12.79 19 45.49 45.49 0 0 1 2.68 11.45c0.38 4.2 0.2 7.28 0.43 10.67a84 84 0 0 0 0.9 9.7 22.78 22.78 0 0 0 2.34 7.69c1.11 1.59 1.71 1.89 4.08 2.2h1.33a0.11 0.11 0 0 0-0.1 0 2.3 2.3 0 0 0-1.24 0.65c-0.65 0.81-0.11 0.25-0.19-0.86a29.21 29.21 0 0 0-1.54-8.23 63.75 63.75 0 0 0-3.48-8.76 39.37 39.37 0 0 0-4.57-7.5 7 7 0 0 0-0.53-0.59l-0.65-0.7c-0.35-0.38-0.53-0.66-0.8-1a20.33 20.33 0 0 1-1.9-3.31 44.23 44.23 0 0 1-2.15-5.71 113.53 113.53 0 0 1-4-21.72 91.16 91.16 0 0 1 0.37-22.45c0.78-3.94 1.49-8.09 5-12.79a13.7 13.7 0 0 1 8.76-5.16 15.29 15.29 0 0 1 4.87 0.16c0.67 0.11 1.34 0.23 2 0.28a10.14 10.14 0 0 0 5.9-0.81 5.43 5.43 0 0 0 2.45-3.73 14.85 14.85 0 0 0-0.22-6.84c-0.25-1-0.85-2.63-1.43-4.32s-1.19-3.4-1.74-5.43a20.07 20.07 0 0 1-0.77-8 12.08 12.08 0 0 1 2.6-6 12.78 12.78 0 0 1 4.8-3.55 22.52 22.52 0 0 1 7.54-1.65l2.85-0.11a4.58 4.58 0 0 0 1.08-0.13c0.54-0.16 0.19-0.12 0.07 0.09s0.11-0.1 0.15-1a18.56 18.56 0 0 0-1.26-6.81l1.39 2.24a34.4 34.4 0 0 1-5.55-8.53 21.16 21.16 0 0 1-1.68-5.87 13.94 13.94 0 0 1 6.58-13.88 18.57 18.57 0 0 1 2.88-1.48l1.31-0.57c1-0.58 0.94-0.64 1.19-1.23 0.59-1.38-0.23-6.06-2-10.16a106.07 106.07 0 0 0-6.52-13c-4.61-8.35-11-15.49-18.29-22.36a188.92 188.92 0 0 0-23.39-18.56l-21.36-14.27 25.59 0.05 54 0.11-1.13 0.08c9.1-1.38 18-3.6 25.58-7.42a36.87 36.87 0 0 0 17.14-16.8c3.78-7.42 5.53-16.54 7.67-26.2s4.93-20.29 11.42-29.69a51.4 51.4 0 0 1 5.38-6.57c1.83-2 3.07-3.16 4.51-5a79.63 79.63 0 0 0 7.5-11.06 148.76 148.76 0 0 0 11.09-25.54 296.49 296.49 0 0 0 12.35-55.5l3.54 6.42c-25.08-13.12-54.68-16.14-82.66-9.74-28.13 6.08-54.65 19.51-79 35.82s-47 35.55-68.06 56.32q-15.8 15.58-30.5 32.29c-9.81 11.08-19.41 22.37-28.32 34.26zM479 501.89c-9-11.85-18.55-23.18-28.39-34.27s-20-21.9-30.5-32.29c-21.06-20.77-43.69-39.94-68.06-56.32s-50.83-29.74-79-35.82c-28-6.4-57.59-3.38-82.66 9.74l3.54-6.42a296.47 296.47 0 0 0 12.35 55.54 148.71 148.71 0 0 0 11.09 25.54 79.68 79.68 0 0 0 7.5 11.06c1.44 1.82 2.68 3 4.51 5a51.32 51.32 0 0 1 5.38 6.57c6.49 9.4 9.3 20.09 11.42 29.69s3.89 18.78 7.67 26.2a36.87 36.87 0 0 0 17.14 16.8c7.59 3.82 16.48 6 25.58 7.42l-1.13-0.08 54-0.11 25.59-0.05-21.36 14.32a188.92 188.92 0 0 0-23.39 18.56c-7.25 6.87-13.69 14-18.29 22.36a106.07 106.07 0 0 0-6.52 13c-1.75 4.11-2.57 8.78-2 10.16 0.25 0.59 0.18 0.65 1.19 1.23l1.31 0.57a18.57 18.57 0 0 1 2.88 1.48 13.94 13.94 0 0 1 6.58 13.88 21.17 21.17 0 0 1-1.68 5.87 34.41 34.41 0 0 1-5.55 8.53l1.39-2.24a18.56 18.56 0 0 0-1.26 6.81c0 0.85 0.28 1.15 0.15 1s-0.47-0.25 0.07-0.09a4.58 4.58 0 0 0 1.08 0.13l2.85 0.11a22.52 22.52 0 0 1 7.54 1.65 12.78 12.78 0 0 1 4.8 3.55 12.08 12.08 0 0 1 2.6 6 20.07 20.07 0 0 1-0.77 8c-0.55 2-1.16 3.76-1.74 5.43s-1.18 3.29-1.43 4.32a14.85 14.85 0 0 0-0.22 6.84 5.43 5.43 0 0 0 2.45 3.73 10.14 10.14 0 0 0 5.9 0.81c0.63-0.05 1.3-0.17 2-0.28a15.29 15.29 0 0 1 4.87-0.16 13.7 13.7 0 0 1 8.76 5.16c3.5 4.7 4.22 8.85 5 12.79a91.16 91.16 0 0 1 0.37 22.45 113.53 113.53 0 0 1-4 21.72 44.18 44.18 0 0 1-2.15 5.71 20.33 20.33 0 0 1-1.9 3.31c-0.27 0.34-0.45 0.62-0.8 1l-0.65 0.7a7 7 0 0 0-0.53 0.59 39.37 39.37 0 0 0-4.57 7.5 63.79 63.79 0 0 0-3.48 8.76 29.21 29.21 0 0 0-1.54 8.23c-0.08 1.12 0.46 1.67-0.19 0.86a2.3 2.3 0 0 0-1.24-0.65 0.11 0.11 0 0 0-0.1 0h1.33c2.37-0.31 3-0.61 4.08-2.2a22.78 22.78 0 0 0 2.34-7.69 84 84 0 0 0 0.9-9.7c0.23-3.39 0.05-6.47 0.43-10.67a45.49 45.49 0 0 1 2.75-11.53 50.68 50.68 0 0 1 12.79-19 34.6 34.6 0 0 1 10.06-6.79c2.13-0.72 4.4-1.87 8.51-0.74a7.8 7.8 0 0 1 3 1.88 10.14 10.14 0 0 1 1.43 2 1.74 1.74 0 0 0 0.44 0.56c0.83 0.83 3.7 1.3 6.2 0.8a9.29 9.29 0 0 0 3-1c0.09-0.05 0.09-0.09-0.06 0.13a2.27 2.27 0 0 0-0.33 0.7c-0.11 0.13-0.15 1.44-0.1 0.43a5.69 5.69 0 0 1 0.09-0.74 5.08 5.08 0 0 1 0.32-1c0.33-0.67 1-2.21 3.84-2.71a4.48 4.48 0 0 1 3.15 1 4.74 4.74 0 0 1 0.64 0.61l0.38 0.49 0.49 0.78 0.54 0.86c0.67 1 1.2 1.32 1.42 1.38a2.82 2.82 0 0 0 2-0.47c2.08-1.09 4.4-3.42 6.42-5.85l-0.82 1.75a34.23 34.23 0 0 1 4.93-11.57 15.44 15.44 0 0 1 5.35-4.92 11.29 11.29 0 0 1 8-1l1.36 0.4h0.12a1.57 1.57 0 0 0 0.86-0.35 12.2 12.2 0 0 0 2.86-3.08 52.71 52.71 0 0 0 4.81-9.14c5.47-13.22 9.07-27.55 12-41.81a331.78 331.78 0 0 1 10-43.12c2.14-7.07 4.53-14.06 7.22-20.93 1.36-3.43 2.8-6.84 4.46-10.14a44.89 44.89 0 0 1 2.76-4.81c1.06-1.42 2.17-3.27 4.09-3.5-1.87 0.35-2.85 2.22-3.81 3.68a44.36 44.36 0 0 0-2.45 4.91c-1.45 3.36-2.68 6.82-3.83 10.3-2.29 7-4.19 14.06-6 21.17a328.27 328.27 0 0 0-8.08 43.21C449 661 446 675.52 440.88 689.77a58.91 58.91 0 0 1-5 10.58 18.84 18.84 0 0 1-4.47 5.09 8.85 8.85 0 0 1-4.17 1.75 7.44 7.44 0 0 1-2.62-0.12l-1.3-0.33c-2-0.41-3.51 0.62-5.25 3.12a26.79 26.79 0 0 0-3.37 8.75l-0.21 1-0.61 0.76c-2.34 2.9-4.74 5.84-8.71 8.2a11.33 11.33 0 0 1-8 1.48 11.45 11.45 0 0 1-6.7-4.71l-0.89-1.31-0.21-0.32 0.18 0.23a3.58 3.58 0 0 0 0.52 0.5 4.26 4.26 0 0 0 3 0.93c2.82-0.48 3.42-2 3.72-2.6a4 4 0 0 0 0.27-0.86l0.06-0.42a6.86 6.86 0 0 1-0.27 1.7A6.7 6.7 0 0 1 396 725a8.93 8.93 0 0 1-1.92 1.92 17.24 17.24 0 0 1-6.55 2.75c-4.17 0.74-8.88 1.09-13.76-2.23a11.37 11.37 0 0 1-3-3.3c-0.6-1.06-0.2-0.21 0-0.11a1.9 1.9 0 0 0 0.78 0.52c0.73 0.13-0.54 0.08-1.56 0.65a25.27 25.27 0 0 0-6.86 5.07 41.4 41.4 0 0 0-9.71 15.41 34.6 34.6 0 0 0-1.84 8.76c-0.21 2.7 0 6.56-0.16 10.08a94.87 94.87 0 0 1-0.79 11 33.16 33.16 0 0 1-3.66 12 16.82 16.82 0 0 1-5.64 5.76 19.06 19.06 0 0 1-7.36 2.28l-1.67 0.1h-0.89l-1.39-0.1a9.84 9.84 0 0 1-5.81-2.87c-3-3.41-3.12-6.51-3.3-8.8a40.09 40.09 0 0 1 1.8-12.18 76.13 76.13 0 0 1 3.94-10.62 51 51 0 0 1 6.05-10.29c0.34-0.44 0.74-0.9 1.18-1.36l0.29-0.31-0.06 0.05c0 0.07 0 0 0 0a9 9 0 0 0 0.62-1.22 32.79 32.79 0 0 0 1.4-4 101 101 0 0 0 3.21-19.11 78.5 78.5 0 0 0-0.5-19c-0.47-2.81-1.5-5.62-2.27-6.44-0.41-0.4-0.14-0.1 0.1-0.07 0 0 0.12 0-0.29 0.07-1 0.19-2.07 0.38-3.16 0.5a23.85 23.85 0 0 1-14.28-2.38 19.67 19.67 0 0 1-9.4-12.59 28.94 28.94 0 0 1 0.06-13.72c0.58-2.34 1.21-4 1.72-5.57s1-3.16 1.38-4.47a8.87 8.87 0 0 0 0.3-2.18 2.62 2.62 0 0 0 0.58 1.26 3.3 3.3 0 0 0 0.62 0.57 10.13 10.13 0 0 0-2.59-0.38l-2.34-0.05a19.3 19.3 0 0 1-4.06-0.48 14.65 14.65 0 0 1-8.59-5.4 16.49 16.49 0 0 1-3.11-8.75 32.29 32.29 0 0 1 2.24-13.5l0.37-1.05 1-1.18a20.43 20.43 0 0 0 2.93-4.55 6.62 6.62 0 0 0 0.5-1.61c0-0.28 0-0.07 0.12 0.29s0.39 0.47 0.14 0.31a3.91 3.91 0 0 0-0.6-0.29l-0.9-0.38c-0.46-0.2-0.9-0.36-1.37-0.62a17.06 17.06 0 0 1-8.79-10.19 23.55 23.55 0 0 1-0.38-11.4 49.13 49.13 0 0 1 2.64-8.86 120.26 120.26 0 0 1 7.39-15c5.47-10 13.15-18.56 21-26a203.19 203.19 0 0 1 25.49-20.38l4.23 14.27-54-0.11h-0.61l-0.53-0.08c-10.11-1.61-20.4-4.07-30.23-9.05a52.24 52.24 0 0 1-23.67-23.57c-5-10.09-6.7-20.42-8.78-29.71s-4.32-17.91-8.92-24.69a36.78 36.78 0 0 0-3.8-4.77c-1.44-1.62-3.67-3.88-5.22-5.92a93.86 93.86 0 0 1-8.72-13.2 162.41 162.41 0 0 1-11.8-28.14 299.51 299.51 0 0 1-12.1-58.57l-0.48-4.49 4-1.93a128.68 128.68 0 0 1 44.83-12.51 140.8 140.8 0 0 1 46 3.69c29.94 7.27 56.84 22.3 81.21 39.7 24.4 17.57 46.27 38.15 66.6 59.92a568.9 568.9 0 0 1 55.7 69.69z" fill="#FFFFFF" p-id="2783"></path></svg>